<svg width="23" height="19" viewBox="0 0 23 19" fill="none" xmlns="http://www.w3.org/2000/svg">
<path d="M22.2201 0.817727C22.043 0.677003 21.8356 0.579244 21.6143 0.532118C21.3931 0.484993 21.1639 0.489783 20.9447 0.546114L14.2745 2.26187C13.3906 2.48923 12.7727 3.28614 12.7727 4.19882V16.922C12.7727 18.2282 14.0046 19.1839 15.2698 18.8592L21.7005 17.209C22.0198 17.1273 22.3026 16.941 22.5038 16.6799C22.705 16.4188 22.813 16.0979 22.8106 15.7683V1.97504C22.807 1.74987 22.7519 1.52852 22.6495 1.32793C22.5472 1.12733 22.4003 0.952814 22.2201 0.817727ZM10.4109 4.19993C10.4109 3.28674 9.79231 2.48952 8.90774 2.26264L2.21522 0.546114C1.99946 0.496154 1.77531 0.494599 1.55888 0.541561C1.34244 0.588523 1.13909 0.682837 0.963439 0.817727C0.784446 0.957669 0.640171 1.13704 0.541852 1.34187C0.443533 1.5467 0.393823 1.77147 0.396594 1.99865V15.7683C0.396843 16.0959 0.506053 16.4141 0.707025 16.6728C0.907997 16.9315 1.18931 17.1159 1.50667 17.1972L7.91009 18.8533C9.17627 19.1807 10.4109 18.2248 10.4109 16.917V4.19993Z" fill="white"/>
</svg>
