<svg width="20" height="22" viewBox="0 0 20 22" fill="none" xmlns="http://www.w3.org/2000/svg">
<path fill-rule="evenodd" clip-rule="evenodd" d="M10.0045 0C6.30089 0 3.29857 2.95492 3.29857 6.6V9.42854C3.29857 10.4486 2.96243 11.4411 2.34059 12.2572L0.920564 14.1206C0.377264 14.8336 0.536048 15.81 1.36744 16.1631C2.86358 16.7985 5.61972 17.6 10.0045 17.6C14.3892 17.6 17.1453 16.7985 18.6414 16.1631C19.4728 15.81 19.6316 14.8336 19.0884 14.1206L17.6683 12.2572C17.0465 11.4411 16.7103 10.4486 16.7103 9.42854V6.6C16.7103 2.95492 13.708 0 10.0045 0ZM10.0045 21.45C8.61198 21.45 7.45732 20.4473 7.24519 19.1356C8.08255 19.208 9.0008 19.25 10.0045 19.25C11.008 19.25 11.9264 19.208 12.7637 19.1356C12.5516 20.4473 11.3969 21.45 10.0045 21.45Z" fill="white"/>
<circle cx="15.1895" cy="4" r="4" fill="#EB5757"/>
<circle cx="15.1895" cy="4" r="4" fill="#157D64" fill-opacity="0.2"/>
</svg>
