<svg width="20" height="20" viewBox="0 0 20 20" fill="none" xmlns="http://www.w3.org/2000/svg">
<path fill-rule="evenodd" clip-rule="evenodd" d="M1.44375 1.76577C0.207092 3.03156 0.207092 5.06879 0.207092 9.14326V17.4034C0.207092 18.2489 0.207092 18.6717 0.3163 18.8979C0.550676 19.3835 1.10004 19.6164 1.6012 19.4428C1.83471 19.3618 2.12678 19.0629 2.71091 18.465H2.71092L2.71094 18.4649C3.18461 17.9801 3.42145 17.7377 3.68242 17.5419C4.22934 17.1317 4.86474 16.8623 5.53487 16.7566C5.85465 16.7061 6.18959 16.7061 6.85946 16.7061H11.2904C14.7606 16.7061 16.4956 16.7061 17.6634 15.7251C17.8772 15.5455 18.0732 15.3449 18.2486 15.1261C19.2071 13.9308 19.2071 12.1549 19.2071 8.60306C19.2071 5.05124 19.2071 3.27533 18.2486 2.08002C18.0732 1.8612 17.8772 1.66055 17.6634 1.48097C16.4956 0.5 14.7606 0.5 11.2904 0.5H8.65154C4.67078 0.5 2.68042 0.5 1.44375 1.76577ZM4.95709 10.2237C5.83155 10.2237 6.54043 9.49807 6.54043 8.60306C6.54043 7.70805 5.83155 6.98245 4.95709 6.98245C4.08264 6.98245 3.37376 7.70805 3.37376 8.60306C3.37376 9.49807 4.08264 10.2237 4.95709 10.2237ZM11.2904 8.60306C11.2904 9.49807 10.5815 10.2237 9.70709 10.2237C8.83267 10.2237 8.12376 9.49807 8.12376 8.60306C8.12376 7.70805 8.83267 6.98245 9.70709 6.98245C10.5815 6.98245 11.2904 7.70805 11.2904 8.60306ZM14.4571 10.2237C15.3315 10.2237 16.0404 9.49807 16.0404 8.60306C16.0404 7.70805 15.3315 6.98245 14.4571 6.98245C13.5827 6.98245 12.8738 7.70805 12.8738 8.60306C12.8738 9.49807 13.5827 10.2237 14.4571 10.2237Z" fill="white"/>
</svg>
