<svg width="19" height="20" viewBox="0 0 19 20" fill="none" xmlns="http://www.w3.org/2000/svg">
<path d="M19 16.4434V10.9339C19 9.13171 19 8.23068 18.6295 7.43422C18.2589 6.63776 17.5612 6.03912 16.1657 4.84183L15.1102 3.93618C12.4403 1.64539 11.1053 0.5 9.5 0.5C7.89471 0.5 6.55975 1.64539 3.88982 3.93618L2.83426 4.84183C1.43881 6.03912 0.741084 6.63776 0.370542 7.43422C0 8.23068 0 9.13171 0 10.9339V16.4434C0 17.3929 0 17.8676 0.160698 18.2421C0.374965 18.7414 0.785946 19.1381 1.30322 19.3449C1.69119 19.5 2.18302 19.5 3.16667 19.5H3.51852C4.17294 19.5 4.50016 19.5 4.76862 19.4306C5.49714 19.2421 6.06619 18.6929 6.2614 17.9896C6.33333 17.7305 6.33333 17.4147 6.33333 16.783V14.4057C6.33333 12.7175 7.75105 11.3491 9.5 11.3491C11.249 11.3491 12.6667 12.7175 12.6667 14.4057V16.783C12.6667 17.4147 12.6667 17.7305 12.7386 17.9896C12.9338 18.6929 13.5029 19.2421 14.2314 19.4306C14.4999 19.5 14.8271 19.5 15.4815 19.5H15.8333C16.817 19.5 17.3088 19.5 17.6968 19.3449C18.214 19.1381 18.6251 18.7414 18.8393 18.2421C19 17.8676 19 17.3929 19 16.4434Z" fill="white"/>
</svg>
