<svg width="12" height="15" viewBox="0 0 12 15" fill="none" xmlns="http://www.w3.org/2000/svg">
<path d="M6 0C3.0975 0 0.75 2.3475 0.75 5.25C0.75 9.1875 6 15 6 15C6 15 11.25 9.1875 11.25 5.25C11.25 2.3475 8.9025 0 6 0ZM6 7.125C5.50272 7.125 5.02581 6.92746 4.67417 6.57583C4.32254 6.22419 4.125 5.74728 4.125 5.25C4.125 4.75272 4.32254 4.27581 4.67417 3.92417C5.02581 3.57254 5.50272 3.375 6 3.375C6.49728 3.375 6.97419 3.57254 7.32583 3.92417C7.67746 4.27581 7.875 4.75272 7.875 5.25C7.875 5.74728 7.67746 6.22419 7.32583 6.57583C6.97419 6.92746 6.49728 7.125 6 7.125Z" fill="#88984A"/>
</svg>
