<svg width="22" height="22" viewBox="0 0 22 22" fill="none" xmlns="http://www.w3.org/2000/svg">
<path d="M20.5372 11.2845C20.4487 11.1034 20.4487 10.8957 20.5372 10.7146L21.3577 9.03608C21.8146 8.10147 21.4526 6.98752 20.5337 6.49995L18.8833 5.62425C18.7052 5.52981 18.5831 5.36172 18.5483 5.16325L18.2255 3.32295C18.0458 2.29832 17.098 1.60979 16.0681 1.7555L14.2182 2.01718C14.0186 2.04537 13.8211 1.98117 13.6763 1.84105L12.3335 0.542027C11.5858 -0.181305 10.4144 -0.181348 9.66679 0.542027L8.32394 1.84118C8.17905 1.98134 7.98161 2.04541 7.78198 2.01731L5.93205 1.75563C4.90188 1.60984 3.95443 2.29845 3.77469 3.32308L3.45191 5.16329C3.41706 5.3618 3.29499 5.52985 3.11697 5.62434L1.46655 6.50004C0.547628 6.98756 0.185661 8.1016 0.642502 9.03621L1.46299 10.7147C1.5515 10.8958 1.5515 11.1036 1.46299 11.2846L0.642459 12.9631C0.185618 13.8978 0.547585 15.0117 1.46651 15.4993L3.11693 16.375C3.29499 16.4694 3.41706 16.6375 3.45191 16.836L3.77469 18.6763C3.93831 19.609 4.73813 20.2632 5.65736 20.2631C5.74789 20.2631 5.83976 20.2567 5.9321 20.2437L7.78202 19.982C7.98152 19.9537 8.17909 20.018 8.32398 20.1581L9.66679 21.4572C10.0407 21.8189 10.5203 21.9997 11.0001 21.9996C11.4798 21.9996 11.9597 21.8188 12.3334 21.4572L13.6763 20.1581C13.8212 20.018 14.0186 19.954 14.2182 19.982L16.0681 20.2437C17.0984 20.3894 18.0458 19.7009 18.2255 18.6762L18.5483 16.836C18.5832 16.6375 18.7053 16.4695 18.8833 16.375L20.5337 15.4993C21.4526 15.0118 21.8146 13.8977 21.3577 12.9631L20.5372 11.2845ZM8.46234 5.2897C9.74503 5.2897 10.7886 6.33328 10.7886 7.61597C10.7886 8.89867 9.74503 9.94225 8.46234 9.94225C7.17964 9.94225 6.13607 8.89867 6.13607 7.61597C6.13607 6.33328 7.17964 5.2897 8.46234 5.2897ZM7.26163 15.6352C7.13775 15.7591 6.97537 15.8211 6.81304 15.8211C6.6507 15.8211 6.48828 15.7591 6.36445 15.6352C6.11669 15.3875 6.11669 14.9858 6.36445 14.738L14.7385 6.36391C14.9862 6.11616 15.388 6.11616 15.6358 6.36391C15.8835 6.61167 15.8835 7.01338 15.6358 7.26114L7.26163 15.6352ZM13.5378 16.7095C12.2551 16.7095 11.2115 15.6659 11.2115 14.3833C11.2115 13.1006 12.2551 12.057 13.5378 12.057C14.8205 12.057 15.864 13.1006 15.864 14.3833C15.864 15.6659 14.8205 16.7095 13.5378 16.7095Z" fill="#FFD53F"/>
</svg>
