<svg width="7" height="10" viewBox="0 0 7 10" fill="none" xmlns="http://www.w3.org/2000/svg">
<path d="M6.0489 4.7894L1.59877 0.487682C1.49584 0.388108 1.35845 0.333252 1.21194 0.333252C1.06544 0.333252 0.928044 0.388108 0.825118 0.487682L0.497397 0.804401C0.284147 1.01078 0.284147 1.3462 0.497397 1.55227L4.23428 5.16459L0.493251 8.78092C0.390325 8.8805 0.333496 9.01324 0.333496 9.15478C0.333496 9.29648 0.390325 9.42922 0.493251 9.52887L0.820972 9.84551C0.923979 9.94508 1.0613 9.99994 1.2078 9.99994C1.3543 9.99994 1.4917 9.94508 1.59462 9.84551L6.0489 5.53986C6.15207 5.43997 6.20873 5.3066 6.20841 5.16483C6.20873 5.0225 6.15207 4.88921 6.0489 4.7894Z" fill="#313131"/>
</svg>
