<svg width="14" height="14" viewBox="0 0 14 14" fill="none" xmlns="http://www.w3.org/2000/svg">
<path d="M10.7066 13.5C10.6 13.5004 10.4949 13.4753 10.4 13.4266L6.99997 11.6466L3.59996 13.4266C3.48956 13.4847 3.36508 13.5106 3.24068 13.5014C3.11628 13.4923 2.99695 13.4484 2.89625 13.3748C2.79555 13.3012 2.71752 13.2008 2.67104 13.085C2.62456 12.9693 2.61148 12.8428 2.6333 12.72L3.29996 8.96664L0.553297 6.29997C0.467602 6.21446 0.406812 6.10722 0.377449 5.98977C0.348086 5.87232 0.35126 5.74909 0.38663 5.63331C0.42527 5.51482 0.496348 5.40954 0.591797 5.32941C0.687247 5.24928 0.803246 5.19751 0.926631 5.17997L4.72663 4.62664L6.39997 1.20664C6.45456 1.09393 6.53979 0.998868 6.64591 0.932356C6.75202 0.865843 6.87473 0.830566 6.99997 0.830566C7.1252 0.830566 7.24791 0.865843 7.35402 0.932356C7.46014 0.998868 7.54538 1.09393 7.59997 1.20664L9.2933 4.61997L13.0933 5.17331C13.2167 5.19084 13.3327 5.24261 13.4281 5.32274C13.5236 5.40288 13.5947 5.50816 13.6333 5.62664C13.6687 5.74242 13.6718 5.86565 13.6425 5.9831C13.6131 6.10055 13.5523 6.20779 13.4666 6.29331L10.72 8.95997L11.3866 12.7133C11.4104 12.8383 11.398 12.9675 11.3507 13.0856C11.3035 13.2037 11.2234 13.3059 11.12 13.38C10.9992 13.4646 10.8539 13.5068 10.7066 13.5Z" fill="#FFD53F"/>
</svg>
