<svg width="18" height="19" viewBox="0 0 18 19" fill="none" xmlns="http://www.w3.org/2000/svg">
<path d="M8.66665 1.58344C4.47889 1.58344 1.08331 4.97901 1.08331 9.16677C1.08331 13.3545 4.47889 16.7501 8.66665 16.7501C12.8544 16.7501 16.25 13.3545 16.25 9.16677C16.25 4.97901 12.8544 1.58344 8.66665 1.58344ZM8.66665 15.4636C5.18982 15.4636 2.36977 12.6436 2.36977 9.16677C2.36977 5.68995 5.18982 2.86989 8.66665 2.86989C12.1435 2.86989 14.9635 5.68995 14.9635 9.16677C14.9635 12.6436 12.1435 15.4636 8.66665 15.4636Z" fill="#313131"/>
<path d="M11.6238 11.3097L9.21003 9.56456V5.3751C9.21003 5.30062 9.14909 5.23969 9.07461 5.23969H8.26042C8.18594 5.23969 8.125 5.30062 8.125 5.3751V10.0368C8.125 10.0808 8.14531 10.1215 8.18086 10.1468L10.9806 12.1883C11.0415 12.2323 11.1262 12.2187 11.1702 12.1595L11.6543 11.4993C11.6983 11.4367 11.6848 11.3521 11.6238 11.3097V11.3097Z" fill="#313131"/>
</svg>
