<svg width="18" height="18" viewBox="0 0 18 18" fill="none" xmlns="http://www.w3.org/2000/svg">
<g clip-path="url(#clip0_445_1003)">
<circle cx="9" cy="9" r="9" fill="#313131"/>
<path d="M12.7154 8.6098L8.26527 4.15975C8.16235 4.05675 8.02495 4 7.87845 4C7.73195 4 7.59455 4.05675 7.49162 4.15975L7.1639 4.48739C6.95065 4.70089 6.95065 5.04788 7.1639 5.26105L10.9008 8.99793L7.15975 12.739C7.05683 12.842 7 12.9793 7 13.1257C7 13.2723 7.05683 13.4096 7.15975 13.5127L7.48748 13.8402C7.59048 13.9433 7.7278 14 7.8743 14C8.0208 14 8.1582 13.9433 8.26113 13.8402L12.7154 9.38614C12.8186 9.2828 12.8752 9.14484 12.8749 8.99817C12.8752 8.85094 12.8186 8.71305 12.7154 8.6098Z" fill="#FFD53F"/>
</g>
<defs>
<clipPath id="clip0_445_1003">
<rect width="18" height="18" fill="white"/>
</clipPath>
</defs>
</svg>
